<svg width="48" height="61" viewBox="0 0 48 61" fill="none" xmlns="http://www.w3.org/2000/svg">
<path d="M19.8742 50.4188C31.1333 39.312 34.957 23.019 35.9408 7.74522C35.9914 6.96025 36.0917 6.16059 36.1728 5.38626C37.2195 6.64038 44.8669 17.3065 46.637 16.1179C47.6715 15.4232 46.6579 14.0611 46.2612 13.5087C43.3907 9.51586 40.6719 5.97122 37.4839 2.20884C35.0843 -0.623623 32.2581 0.942296 29.4942 2.64211C25.2744 5.23727 25.0057 5.75567 20.7293 8.60345C20.0245 9.07296 19.2674 9.49742 18.6361 10.0242C17.894 10.6441 17.203 11.7452 17.8813 12.6021C18.6501 13.5733 19.7341 13.2319 20.5798 12.6048C20.7562 12.4735 20.9374 12.3484 21.1215 12.2277C23.1445 10.9023 32.1746 4.25447 32.681 4.89093C32.8518 5.10519 32.8809 5.39511 32.9013 5.6682C33.4897 13.5471 31.965 21.5523 29.7002 29.0756C28.1766 34.1381 25.8162 38.9468 22.7561 43.2593C20.2972 46.7248 17.3435 49.8747 13.9049 52.3844C10.2178 55.0759 6.33733 56.3787 2.02294 57.688C-0.46085 58.4415 2.11029 60.3635 3.577 60.2978C5.18908 60.226 6.71043 59.2961 8.1325 58.6257C12.6306 56.5023 16.5345 53.7131 19.8742 50.4188Z" fill="#6941C6"/>
</svg>
