<svg width="1440" height="367" viewBox="0 0 1440 367" fill="none" xmlns="http://www.w3.org/2000/svg">
<rect width="1216" height="367" fill="#53389E"/>
<path d="M115.035 97.213C119.428 105.566 125.453 112.715 132.941 118.466C133.078 118.622 133.249 118.754 133.441 118.85C133.632 118.945 133.84 118.992 134.048 118.998C134.074 118.998 134.101 119 134.127 119C134.362 119 134.599 118.945 134.819 118.841C134.994 118.758 135.146 118.64 135.273 118.497C152.028 105.666 155.295 92.2175 155.416 91.692C155.91 89.8088 156.161 87.9211 156.161 86.0812C156.162 73.906 146.255 64 134.08 64C121.905 64 112 73.905 112 86.0812C112 87.885 112.24 89.7298 112.713 91.5701C112.725 91.695 112.752 91.8197 112.795 91.9404C112.934 92.3266 114.176 95.7615 115.035 97.213ZM133.944 82.6539C130.896 82.6539 128.157 84.3485 126.796 87.0783C126.428 87.8181 125.526 88.1174 124.787 87.749C124.048 87.381 123.747 86.4808 124.117 85.741C125.988 81.9901 129.753 79.6594 133.944 79.6594C138.189 79.6594 142.095 82.1445 143.895 85.9914C144.247 86.74 143.922 87.6324 143.173 87.9819C142.968 88.0784 142.752 88.1233 142.539 88.1233C141.977 88.1233 141.438 87.805 141.184 87.2611C139.874 84.4611 137.032 82.6539 133.944 82.6539ZM138.479 91.4882C138.479 93.9972 136.446 96.0307 133.937 96.0307C131.428 96.0307 129.395 93.9972 129.395 91.4882C129.395 88.9802 131.428 86.9468 133.937 86.9468C136.446 86.9468 138.479 88.9802 138.479 91.4882ZM133.918 75.0307C128.97 75.0307 124.522 77.7824 122.31 82.2123C121.941 82.9532 121.042 83.2525 120.302 82.883C119.562 82.5141 119.262 81.6148 119.631 80.875C122.353 75.4231 127.827 72.0365 133.916 72.0365C140.087 72.0365 145.764 75.6489 148.379 81.2407C148.73 81.9893 148.405 82.8811 147.657 83.2307C147.452 83.3276 147.236 83.3725 147.023 83.3725C146.46 83.3725 145.922 83.0542 145.666 82.5104C143.543 77.9664 138.931 75.0307 133.918 75.0307Z" fill="white"/>
<path d="M176.642 103.5H181.437L185.858 88.2841H186.039L190.471 103.5H195.267L201.926 80.2273H196.551L192.698 96.4318H192.494L188.255 80.2273H183.653L179.403 96.3977H179.21L175.358 80.2273H169.983L176.642 103.5ZM210.548 103.841C214.866 103.841 217.775 101.739 218.457 98.5L213.98 98.2045C213.491 99.5341 212.241 100.227 210.627 100.227C208.207 100.227 206.673 98.625 206.673 96.0227V96.0114H218.559V94.6818C218.559 88.75 214.968 85.8182 210.355 85.8182C205.218 85.8182 201.889 89.4659 201.889 94.8523C201.889 100.386 205.173 103.841 210.548 103.841ZM206.673 93.0114C206.775 91.0227 208.286 89.4318 210.434 89.4318C212.536 89.4318 213.991 90.9318 214.002 93.0114H206.673ZM229.673 103.841C233.991 103.841 236.9 101.739 237.582 98.5L233.105 98.2045C232.616 99.5341 231.366 100.227 229.752 100.227C227.332 100.227 225.798 98.625 225.798 96.0227V96.0114H237.684V94.6818C237.684 88.75 234.093 85.8182 229.48 85.8182C224.343 85.8182 221.014 89.4659 221.014 94.8523C221.014 100.386 224.298 103.841 229.673 103.841ZM225.798 93.0114C225.9 91.0227 227.411 89.4318 229.559 89.4318C231.661 89.4318 233.116 90.9318 233.127 93.0114H225.798ZM240.752 103.5H255.423V99.6364H247.105V99.5114L255.127 89.1932V86.0455H241.048V89.9091H249.298V90.0341L240.752 100.614V103.5ZM266.579 103.841C270.897 103.841 273.806 101.739 274.488 98.5L270.011 98.2045C269.522 99.5341 268.272 100.227 266.659 100.227C264.238 100.227 262.704 98.625 262.704 96.0227V96.0114H274.59V94.6818C274.59 88.75 271 85.8182 266.386 85.8182C261.25 85.8182 257.92 89.4659 257.92 94.8523C257.92 100.386 261.204 103.841 266.579 103.841ZM262.704 93.0114C262.806 91.0227 264.318 89.4318 266.465 89.4318C268.568 89.4318 270.022 90.9318 270.034 93.0114H262.704ZM285.704 103.841C290.022 103.841 292.931 101.739 293.613 98.5L289.136 98.2045C288.647 99.5341 287.397 100.227 285.784 100.227C283.363 100.227 281.829 98.625 281.829 96.0227V96.0114H293.715V94.6818C293.715 88.75 290.125 85.8182 285.511 85.8182C280.375 85.8182 277.045 89.4659 277.045 94.8523C277.045 100.386 280.329 103.841 285.704 103.841ZM281.829 93.0114C281.931 91.0227 283.443 89.4318 285.59 89.4318C287.693 89.4318 289.147 90.9318 289.159 93.0114H281.829Z" fill="white"/>
<path d="M115.523 169H116.977L119.545 159.727H119.636L122.205 169H123.659L126.841 157.364H125.409L122.977 166.841H122.864L120.386 157.364H118.795L116.318 166.841H116.205L113.773 157.364H112.341L115.523 169ZM128.415 169H129.756V160.273H128.415V169ZM129.097 158.818C129.619 158.818 130.051 158.409 130.051 157.909C130.051 157.409 129.619 157 129.097 157C128.574 157 128.142 157.409 128.142 157.909C128.142 158.409 128.574 158.818 129.097 158.818ZM132.393 169H133.803V163.795H138.848V162.545H133.803V158.614H139.371V157.364H132.393V169ZM141.602 169H142.943V160.273H141.602V169ZM142.284 158.818C142.807 158.818 143.239 158.409 143.239 157.909C143.239 157.409 142.807 157 142.284 157C141.761 157 141.33 157.409 141.33 157.909C141.33 158.409 141.761 158.818 142.284 158.818ZM149.899 169H151.24V160.273H149.899V169ZM150.581 158.818C151.104 158.818 151.536 158.409 151.536 157.909C151.536 157.409 151.104 157 150.581 157C150.058 157 149.626 157.409 149.626 157.909C149.626 158.409 150.058 158.818 150.581 158.818ZM155.037 157.364H153.696V169H155.037V157.364ZM158.834 157.364H157.493V169H158.834V157.364ZM161.29 169H162.631V160.273H161.29V169ZM161.972 158.818C162.494 158.818 162.926 158.409 162.926 157.909C162.926 157.409 162.494 157 161.972 157C161.449 157 161.017 157.409 161.017 157.909C161.017 158.409 161.449 158.818 161.972 158.818ZM165.087 169H166.428V163.545C166.428 162.267 167.359 161.364 168.405 161.364C169.422 161.364 170.132 162.028 170.132 163.023V169H171.496V163.318C171.496 162.193 172.2 161.364 173.428 161.364C174.382 161.364 175.2 161.869 175.2 163.159V169H176.541V163.159C176.541 161.108 175.439 160.159 173.882 160.159C172.632 160.159 171.717 160.733 171.268 161.636H171.178C170.746 160.705 169.984 160.159 168.837 160.159C167.7 160.159 166.859 160.705 166.496 161.636H166.382V160.273H165.087V169ZM178.993 169H180.334V160.273H178.993V169ZM179.675 158.818C180.197 158.818 180.629 158.409 180.629 157.909C180.629 157.409 180.197 157 179.675 157C179.152 157 178.72 157.409 178.72 157.909C178.72 158.409 179.152 158.818 179.675 158.818ZM186.585 160.273H184.722V158.182H183.381V160.273H182.062V161.409H183.381V166.864C183.381 168.386 184.608 169.114 185.744 169.114C186.244 169.114 186.562 169.023 186.744 168.955L186.472 167.75C186.358 167.773 186.176 167.818 185.881 167.818C185.29 167.818 184.722 167.636 184.722 166.5V161.409H186.585V160.273ZM192.168 169.182C193.94 169.182 195.236 168.295 195.645 166.977L194.349 166.614C194.009 167.523 193.219 167.977 192.168 167.977C190.594 167.977 189.509 166.96 189.446 165.091H195.781V164.523C195.781 161.273 193.849 160.159 192.031 160.159C189.668 160.159 188.099 162.023 188.099 164.705C188.099 167.386 189.645 169.182 192.168 169.182ZM189.446 163.932C189.537 162.574 190.497 161.364 192.031 161.364C193.486 161.364 194.418 162.455 194.418 163.932H189.446ZM191.349 159.091H192.531L194.304 156.455H192.736L191.349 159.091ZM204.889 169.205C206.412 169.205 207.207 168.386 207.48 167.818H207.548V169H208.889V163.25C208.889 160.477 206.776 160.159 205.662 160.159C204.344 160.159 202.844 160.614 202.162 162.205L203.435 162.659C203.73 162.023 204.429 161.341 205.707 161.341C206.94 161.341 207.548 161.994 207.548 163.114V163.159C207.548 163.807 206.889 163.75 205.298 163.955C203.679 164.165 201.912 164.523 201.912 166.523C201.912 168.227 203.23 169.205 204.889 169.205ZM205.094 168C204.026 168 203.253 167.523 203.253 166.591C203.253 165.568 204.185 165.25 205.23 165.114C205.798 165.045 207.321 164.886 207.548 164.614V165.841C207.548 166.932 206.685 168 205.094 168ZM205.185 159.091H206.366L204.98 156.455H203.412L205.185 159.091ZM217.178 157.364H215.837V169H217.178V157.364ZM220.815 157.364H219.543V158.409C219.543 159.25 219.134 159.977 218.656 160.659L219.384 161.25C220.293 160.523 220.815 159.318 220.815 158.386V157.364ZM225.246 169.182C227.018 169.182 228.314 168.295 228.723 166.977L227.428 166.614C227.087 167.523 226.297 167.977 225.246 167.977C223.672 167.977 222.587 166.96 222.524 165.091H228.859V164.523C228.859 161.273 226.928 160.159 225.109 160.159C222.746 160.159 221.178 162.023 221.178 164.705C221.178 167.386 222.723 169.182 225.246 169.182ZM222.524 163.932C222.615 162.574 223.575 161.364 225.109 161.364C226.564 161.364 227.496 162.455 227.496 163.932H222.524ZM231.665 160.273H230.119L232.892 164.636L230.119 169H231.665L233.756 165.614L235.847 169H237.392L234.574 164.636L237.392 160.273H235.847L233.756 163.841L231.665 160.273ZM243.101 160.273H241.237V158.182H239.896V160.273H238.578V161.409H239.896V166.864C239.896 168.386 241.124 169.114 242.26 169.114C242.76 169.114 243.078 169.023 243.26 168.955L242.987 167.75C242.874 167.773 242.692 167.818 242.396 167.818C241.805 167.818 241.237 167.636 241.237 166.5V161.409H243.101V160.273ZM248.683 169.182C250.456 169.182 251.751 168.295 252.161 166.977L250.865 166.614C250.524 167.523 249.734 167.977 248.683 167.977C247.109 167.977 246.024 166.96 245.962 165.091H252.297V164.523C252.297 161.273 250.365 160.159 248.547 160.159C246.183 160.159 244.615 162.023 244.615 164.705C244.615 167.386 246.161 169.182 248.683 169.182ZM245.962 163.932C246.053 162.574 247.013 161.364 248.547 161.364C250.001 161.364 250.933 162.455 250.933 163.932H245.962ZM247.865 159.091H249.047L250.82 156.455H249.251L247.865 159.091ZM254.337 169H255.678V163.477C255.678 162.295 256.609 161.432 257.882 161.432C258.24 161.432 258.609 161.5 258.7 161.523V160.159C258.547 160.148 258.195 160.136 257.996 160.136C256.95 160.136 256.041 160.727 255.723 161.591H255.632V160.273H254.337V169ZM260.29 169H261.631V160.273H260.29V169ZM260.972 158.818C261.494 158.818 261.926 158.409 261.926 157.909C261.926 157.409 261.494 157 260.972 157C260.449 157 260.017 157.409 260.017 157.909C260.017 158.409 260.449 158.818 260.972 158.818ZM267.746 169.182C269.518 169.182 270.814 168.295 271.223 166.977L269.928 166.614C269.587 167.523 268.797 167.977 267.746 167.977C266.172 167.977 265.087 166.96 265.024 165.091H271.359V164.523C271.359 161.273 269.428 160.159 267.609 160.159C265.246 160.159 263.678 162.023 263.678 164.705C263.678 167.386 265.223 169.182 267.746 169.182ZM265.024 163.932C265.115 162.574 266.075 161.364 267.609 161.364C269.064 161.364 269.996 162.455 269.996 163.932H265.024ZM278.899 165.432C278.899 167.068 277.649 167.818 276.649 167.818C275.536 167.818 274.74 167 274.74 165.727V160.273H273.399V165.818C273.399 168.045 274.581 169.114 276.217 169.114C277.536 169.114 278.399 168.409 278.808 167.523H278.899V169H280.24V160.273H278.899V165.432ZM282.696 169H284.037V163.477C284.037 162.295 284.969 161.432 286.241 161.432C286.599 161.432 286.969 161.5 287.06 161.523V160.159C286.906 160.148 286.554 160.136 286.355 160.136C285.31 160.136 284.401 160.727 284.082 161.591H283.991V160.273H282.696V169ZM289.649 167.409H288.195L288.126 168.045C287.962 169.585 287.638 171.119 287.49 171.841H288.513C288.786 171.068 289.365 169.318 289.558 168.023L289.649 167.409ZM299.202 169.205C300.724 169.205 301.52 168.386 301.793 167.818H301.861V169H303.202V163.25C303.202 160.477 301.088 160.159 299.974 160.159C298.656 160.159 297.156 160.614 296.474 162.205L297.747 162.659C298.043 162.023 298.741 161.341 300.02 161.341C301.253 161.341 301.861 161.994 301.861 163.114V163.159C301.861 163.807 301.202 163.75 299.611 163.955C297.991 164.165 296.224 164.523 296.224 166.523C296.224 168.227 297.543 169.205 299.202 169.205ZM299.406 168C298.338 168 297.565 167.523 297.565 166.591C297.565 165.568 298.497 165.25 299.543 165.114C300.111 165.045 301.634 164.886 301.861 164.614V165.841C301.861 166.932 300.997 168 299.406 168ZM299.497 159.091H300.679L299.293 156.455H297.724L299.497 159.091ZM310.149 172.273H311.49V167.659H311.604C311.899 168.136 312.467 169.182 314.149 169.182C316.331 169.182 317.854 167.432 317.854 164.659C317.854 161.909 316.331 160.159 314.126 160.159C312.422 160.159 311.899 161.205 311.604 161.659H311.445V160.273H310.149V172.273ZM311.467 164.636C311.467 162.682 312.331 161.364 313.967 161.364C315.672 161.364 316.513 162.795 316.513 164.636C316.513 166.5 315.649 167.977 313.967 167.977C312.354 167.977 311.467 166.614 311.467 164.636ZM319.899 169H321.24V163.477C321.24 162.295 322.172 161.432 323.445 161.432C323.803 161.432 324.172 161.5 324.263 161.523V160.159C324.109 160.148 323.757 160.136 323.558 160.136C322.513 160.136 321.604 160.727 321.286 161.591H321.195V160.273H319.899V169ZM325.852 169H327.193V160.273H325.852V169ZM326.534 158.818C327.057 158.818 327.489 158.409 327.489 157.909C327.489 157.409 327.057 157 326.534 157C326.011 157 325.58 157.409 325.58 157.909C325.58 158.409 326.011 158.818 326.534 158.818ZM330.649 160.273H329.104L331.876 164.636L329.104 169H330.649L332.74 165.614L334.831 169H336.376L333.558 164.636L336.376 160.273H334.831L332.74 163.841L330.649 160.273ZM346.335 169.182C348.267 169.182 349.54 168 349.767 166.455H348.426C348.176 167.409 347.381 167.977 346.335 167.977C344.744 167.977 343.722 166.659 343.722 164.636C343.722 162.659 344.767 161.364 346.335 161.364C347.517 161.364 348.222 162.091 348.426 162.886H349.767C349.54 161.25 348.153 160.159 346.312 160.159C343.949 160.159 342.381 162.023 342.381 164.682C342.381 167.295 343.881 169.182 346.335 169.182ZM354.295 169.205C355.818 169.205 356.614 168.386 356.886 167.818H356.955V169H358.295V163.25C358.295 160.477 356.182 160.159 355.068 160.159C353.75 160.159 352.25 160.614 351.568 162.205L352.841 162.659C353.136 162.023 353.835 161.341 355.114 161.341C356.347 161.341 356.955 161.994 356.955 163.114V163.159C356.955 163.807 356.295 163.75 354.705 163.955C353.085 164.165 351.318 164.523 351.318 166.523C351.318 168.227 352.636 169.205 354.295 169.205ZM354.5 168C353.432 168 352.659 167.523 352.659 166.591C352.659 165.568 353.591 165.25 354.636 165.114C355.205 165.045 356.727 164.886 356.955 164.614V165.841C356.955 166.932 356.091 168 354.5 168ZM366.925 162.227C366.504 160.989 365.561 160.159 363.834 160.159C361.993 160.159 360.629 161.205 360.629 162.682C360.629 163.886 361.345 164.693 362.947 165.068L364.402 165.409C365.283 165.614 365.697 166.034 365.697 166.636C365.697 167.386 364.902 168 363.652 168C362.555 168 361.868 167.528 361.629 166.591L360.357 166.909C360.669 168.392 361.891 169.182 363.675 169.182C365.703 169.182 367.084 168.074 367.084 166.568C367.084 165.352 366.322 164.585 364.766 164.205L363.47 163.886C362.436 163.631 361.97 163.284 361.97 162.614C361.97 161.864 362.766 161.318 363.834 161.318C365.004 161.318 365.487 161.966 365.72 162.568L366.925 162.227ZM375.284 162.227C374.864 160.989 373.92 160.159 372.193 160.159C370.352 160.159 368.989 161.205 368.989 162.682C368.989 163.886 369.705 164.693 371.307 165.068L372.761 165.409C373.642 165.614 374.057 166.034 374.057 166.636C374.057 167.386 373.261 168 372.011 168C370.915 168 370.227 167.528 369.989 166.591L368.716 166.909C369.028 168.392 370.25 169.182 372.034 169.182C374.062 169.182 375.443 168.074 375.443 166.568C375.443 165.352 374.682 164.585 373.125 164.205L371.83 163.886C370.795 163.631 370.33 163.284 370.33 162.614C370.33 161.864 371.125 161.318 372.193 161.318C373.364 161.318 373.847 161.966 374.08 162.568L375.284 162.227ZM381.121 169.182C382.893 169.182 384.189 168.295 384.598 166.977L383.303 166.614C382.962 167.523 382.172 167.977 381.121 167.977C379.547 167.977 378.462 166.96 378.399 165.091H384.734V164.523C384.734 161.273 382.803 160.159 380.984 160.159C378.621 160.159 377.053 162.023 377.053 164.705C377.053 167.386 378.598 169.182 381.121 169.182ZM378.399 163.932C378.49 162.574 379.45 161.364 380.984 161.364C382.439 161.364 383.371 162.455 383.371 163.932H378.399ZM380.303 159.091H381.484L383.257 156.455H381.689L380.303 159.091ZM393.047 157.364H391.501L391.615 165.727H392.933L393.047 157.364ZM392.274 169.091C392.837 169.091 393.297 168.631 393.297 168.068C393.297 167.506 392.837 167.045 392.274 167.045C391.712 167.045 391.251 167.506 391.251 168.068C391.251 168.631 391.712 169.091 392.274 169.091Z" fill="#E9D7FE"/>
<path d="M113.278 225H120.307V223.489H115.034V213.364H113.278V225ZM125.935 225.176C127.838 225.176 129.185 224.239 129.571 222.818L127.963 222.528C127.656 223.352 126.918 223.773 125.952 223.773C124.497 223.773 123.52 222.83 123.474 221.148H129.679V220.545C129.679 217.392 127.793 216.159 125.815 216.159C123.384 216.159 121.781 218.011 121.781 220.693C121.781 223.403 123.361 225.176 125.935 225.176ZM123.48 219.875C123.548 218.636 124.446 217.562 125.827 217.562C127.145 217.562 128.009 218.54 128.014 219.875H123.48ZM139.474 225.176C141.537 225.176 142.872 223.938 143.06 222.239H141.406C141.19 223.182 140.457 223.739 139.486 223.739C138.048 223.739 137.122 222.54 137.122 220.636C137.122 218.767 138.065 217.591 139.486 217.591C140.565 217.591 141.224 218.273 141.406 219.091H143.06C142.878 217.33 141.44 216.159 139.457 216.159C136.997 216.159 135.406 218.011 135.406 220.676C135.406 223.307 136.94 225.176 139.474 225.176ZM148.553 225.176C151.013 225.176 152.621 223.375 152.621 220.676C152.621 217.96 151.013 216.159 148.553 216.159C146.092 216.159 144.484 217.96 144.484 220.676C144.484 223.375 146.092 225.176 148.553 225.176ZM148.558 223.75C146.95 223.75 146.2 222.347 146.2 220.67C146.2 219 146.95 217.58 148.558 217.58C150.155 217.58 150.905 219 150.905 220.67C150.905 222.347 150.155 223.75 148.558 223.75ZM156.216 219.818C156.216 218.426 157.068 217.631 158.25 217.631C159.403 217.631 160.102 218.386 160.102 219.653V225H161.801V219.449C161.801 217.29 160.614 216.159 158.83 216.159C157.517 216.159 156.659 216.767 156.256 217.693H156.148V216.273H154.517V225H156.216V219.818ZM167.756 225.176C169.818 225.176 171.153 223.938 171.341 222.239H169.688C169.472 223.182 168.739 223.739 167.767 223.739C166.33 223.739 165.403 222.54 165.403 220.636C165.403 218.767 166.347 217.591 167.767 217.591C168.847 217.591 169.506 218.273 169.688 219.091H171.341C171.159 217.33 169.722 216.159 167.739 216.159C165.278 216.159 163.688 218.011 163.688 220.676C163.688 223.307 165.222 225.176 167.756 225.176ZM176.919 225.176C178.822 225.176 180.169 224.239 180.555 222.818L178.947 222.528C178.641 223.352 177.902 223.773 176.936 223.773C175.482 223.773 174.504 222.83 174.459 221.148H180.663V220.545C180.663 217.392 178.777 216.159 176.8 216.159C174.368 216.159 172.766 218.011 172.766 220.693C172.766 223.403 174.345 225.176 176.919 225.176ZM174.464 219.875C174.533 218.636 175.43 217.562 176.811 217.562C178.129 217.562 178.993 218.54 178.999 219.875H174.464ZM182.548 228.273H184.247V223.642H184.349C184.656 224.199 185.281 225.17 186.872 225.17C188.986 225.17 190.52 223.477 190.52 220.653C190.52 217.824 188.963 216.159 186.855 216.159C185.236 216.159 184.651 217.148 184.349 217.688H184.207V216.273H182.548V228.273ZM184.213 220.636C184.213 218.812 185.009 217.602 186.491 217.602C188.031 217.602 188.804 218.903 188.804 220.636C188.804 222.386 188.009 223.722 186.491 223.722C185.031 223.722 184.213 222.472 184.213 220.636ZM196.497 216.273H194.707V214.182H193.009V216.273H191.73V217.636H193.009V222.79C193.003 224.375 194.213 225.142 195.554 225.114C196.094 225.108 196.457 225.006 196.656 224.932L196.349 223.528C196.236 223.551 196.026 223.602 195.753 223.602C195.202 223.602 194.707 223.42 194.707 222.438V217.636H196.497V216.273Z" fill="#E9D7FE"/>
<path d="M231.278 225H238.307V223.489H233.034V213.364H231.278V225ZM240.993 213.364H239.538V214.472C239.538 215.352 239.152 216.074 238.709 216.727L239.55 217.33C240.425 216.625 240.993 215.42 240.993 214.455V213.364ZM244.354 225.193C245.797 225.193 246.609 224.46 246.933 223.807H247.001V225H248.661V219.205C248.661 216.665 246.661 216.159 245.274 216.159C243.695 216.159 242.24 216.795 241.672 218.386L243.268 218.75C243.518 218.131 244.155 217.534 245.297 217.534C246.393 217.534 246.956 218.108 246.956 219.097V219.136C246.956 219.756 246.32 219.744 244.751 219.926C243.098 220.119 241.405 220.551 241.405 222.534C241.405 224.25 242.695 225.193 244.354 225.193ZM244.723 223.83C243.763 223.83 243.07 223.398 243.07 222.557C243.07 221.648 243.876 221.324 244.859 221.193C245.411 221.119 246.717 220.972 246.962 220.727V221.852C246.962 222.886 246.138 223.83 244.723 223.83ZM250.923 228.273H252.622V223.642H252.724C253.031 224.199 253.656 225.17 255.247 225.17C257.361 225.17 258.895 223.477 258.895 220.653C258.895 217.824 257.338 216.159 255.23 216.159C253.611 216.159 253.026 217.148 252.724 217.688H252.582V216.273H250.923V228.273ZM252.588 220.636C252.588 218.812 253.384 217.602 254.866 217.602C256.406 217.602 257.179 218.903 257.179 220.636C257.179 222.386 256.384 223.722 254.866 223.722C253.406 223.722 252.588 222.472 252.588 220.636ZM260.798 228.273H262.497V223.642H262.599C262.906 224.199 263.531 225.17 265.122 225.17C267.236 225.17 268.77 223.477 268.77 220.653C268.77 217.824 267.213 216.159 265.105 216.159C263.486 216.159 262.901 217.148 262.599 217.688H262.457V216.273H260.798V228.273ZM262.463 220.636C262.463 218.812 263.259 217.602 264.741 217.602C266.281 217.602 267.054 218.903 267.054 220.636C267.054 222.386 266.259 223.722 264.741 223.722C263.281 223.722 262.463 222.472 262.463 220.636ZM272.372 213.364H270.673V225H272.372V213.364ZM274.658 225H276.357V216.273H274.658V225ZM275.516 214.926C276.101 214.926 276.589 214.472 276.589 213.915C276.589 213.358 276.101 212.898 275.516 212.898C274.925 212.898 274.442 213.358 274.442 213.915C274.442 214.472 274.925 214.926 275.516 214.926ZM282.318 225.176C284.381 225.176 285.716 223.938 285.903 222.239H284.25C284.034 223.182 283.301 223.739 282.33 223.739C280.892 223.739 279.966 222.54 279.966 220.636C279.966 218.767 280.909 217.591 282.33 217.591C283.409 217.591 284.068 218.273 284.25 219.091H285.903C285.722 217.33 284.284 216.159 282.301 216.159C279.841 216.159 278.25 218.011 278.25 220.676C278.25 223.307 279.784 225.176 282.318 225.176ZM290.26 225.193C291.703 225.193 292.516 224.46 292.839 223.807H292.908V225H294.567V219.205C294.567 216.665 292.567 216.159 291.18 216.159C289.601 216.159 288.146 216.795 287.578 218.386L289.175 218.75C289.425 218.131 290.061 217.534 291.203 217.534C292.3 217.534 292.862 218.108 292.862 219.097V219.136C292.862 219.756 292.226 219.744 290.658 219.926C289.004 220.119 287.311 220.551 287.311 222.534C287.311 224.25 288.601 225.193 290.26 225.193ZM290.629 223.83C289.669 223.83 288.976 223.398 288.976 222.557C288.976 221.648 289.783 221.324 290.766 221.193C291.317 221.119 292.624 220.972 292.868 220.727V221.852C292.868 222.886 292.044 223.83 290.629 223.83ZM300.903 216.273H299.114V214.182H297.415V216.273H296.136V217.636H297.415V222.79C297.409 224.375 298.619 225.142 299.96 225.114C300.5 225.108 300.864 225.006 301.062 224.932L300.756 223.528C300.642 223.551 300.432 223.602 300.159 223.602C299.608 223.602 299.114 223.42 299.114 222.438V217.636H300.903V216.273ZM302.783 225H304.482V216.273H302.783V225ZM303.641 214.926C304.226 214.926 304.714 214.472 304.714 213.915C304.714 213.358 304.226 212.898 303.641 212.898C303.05 212.898 302.567 213.358 302.567 213.915C302.567 214.472 303.05 214.926 303.641 214.926ZM310.443 225.176C312.903 225.176 314.511 223.375 314.511 220.676C314.511 217.96 312.903 216.159 310.443 216.159C307.983 216.159 306.375 217.96 306.375 220.676C306.375 223.375 307.983 225.176 310.443 225.176ZM310.449 223.75C308.841 223.75 308.091 222.347 308.091 220.67C308.091 219 308.841 217.58 310.449 217.58C312.045 217.58 312.795 219 312.795 220.67C312.795 222.347 312.045 223.75 310.449 223.75ZM318.107 219.818C318.107 218.426 318.959 217.631 320.141 217.631C321.294 217.631 321.993 218.386 321.993 219.653V225H323.692V219.449C323.692 217.29 322.504 216.159 320.72 216.159C319.408 216.159 318.55 216.767 318.146 217.693H318.038V216.273H316.408V225H318.107V219.818Z" fill="#E9D7FE"/>
<path d="M360.557 225H362.33L364.778 216.284H364.869L367.318 225H369.085L372.318 213.364H370.466L368.205 222.381H368.097L365.739 213.364H363.909L361.551 222.375H361.443L359.176 213.364H357.33L360.557 225ZM376.685 225.176C378.588 225.176 379.935 224.239 380.321 222.818L378.713 222.528C378.406 223.352 377.668 223.773 376.702 223.773C375.247 223.773 374.27 222.83 374.224 221.148H380.429V220.545C380.429 217.392 378.543 216.159 376.565 216.159C374.134 216.159 372.531 218.011 372.531 220.693C372.531 223.403 374.111 225.176 376.685 225.176ZM374.23 219.875C374.298 218.636 375.196 217.562 376.577 217.562C377.895 217.562 378.759 218.54 378.764 219.875H374.23ZM386.075 225.176C387.979 225.176 389.325 224.239 389.712 222.818L388.104 222.528C387.797 223.352 387.058 223.773 386.092 223.773C384.638 223.773 383.661 222.83 383.615 221.148H389.82V220.545C389.82 217.392 387.933 216.159 385.956 216.159C383.524 216.159 381.922 218.011 381.922 220.693C381.922 223.403 383.501 225.176 386.075 225.176ZM383.621 219.875C383.689 218.636 384.587 217.562 385.967 217.562C387.286 217.562 388.149 218.54 388.155 219.875H383.621ZM391.523 225H398.528V223.523H393.824V223.443L398.369 217.511V216.273H391.676V217.75H396.25V217.83L391.523 223.835V225ZM404.044 225.176C405.947 225.176 407.294 224.239 407.68 222.818L406.072 222.528C405.766 223.352 405.027 223.773 404.061 223.773C402.607 223.773 401.629 222.83 401.584 221.148H407.788V220.545C407.788 217.392 405.902 216.159 403.925 216.159C401.493 216.159 399.891 218.011 399.891 220.693C399.891 223.403 401.47 225.176 404.044 225.176ZM401.589 219.875C401.658 218.636 402.555 217.562 403.936 217.562C405.254 217.562 406.118 218.54 406.124 219.875H401.589ZM413.435 225.176C415.338 225.176 416.685 224.239 417.071 222.818L415.463 222.528C415.156 223.352 414.418 223.773 413.452 223.773C411.997 223.773 411.02 222.83 410.974 221.148H417.179V220.545C417.179 217.392 415.293 216.159 413.315 216.159C410.884 216.159 409.281 218.011 409.281 220.693C409.281 223.403 410.861 225.176 413.435 225.176ZM410.98 219.875C411.048 218.636 411.946 217.562 413.327 217.562C414.645 217.562 415.509 218.54 415.514 219.875H410.98ZM423.435 213.364V225H425.105V216.574H425.213L428.645 224.983H430.031L433.463 216.58H433.571V225H435.241V213.364H433.111L429.406 222.409H429.27L425.565 213.364H423.435ZM440.197 225.193C441.641 225.193 442.453 224.46 442.777 223.807H442.845V225H444.504V219.205C444.504 216.665 442.504 216.159 441.118 216.159C439.538 216.159 438.084 216.795 437.516 218.386L439.112 218.75C439.362 218.131 439.999 217.534 441.141 217.534C442.237 217.534 442.8 218.108 442.8 219.097V219.136C442.8 219.756 442.163 219.744 440.595 219.926C438.942 220.119 437.249 220.551 437.249 222.534C437.249 224.25 438.538 225.193 440.197 225.193ZM440.567 223.83C439.607 223.83 438.913 223.398 438.913 222.557C438.913 221.648 439.72 221.324 440.703 221.193C441.254 221.119 442.561 220.972 442.805 220.727V221.852C442.805 222.886 441.982 223.83 440.567 223.83ZM446.767 228.273H448.466V223.642H448.568C448.875 224.199 449.5 225.17 451.091 225.17C453.205 225.17 454.739 223.477 454.739 220.653C454.739 217.824 453.182 216.159 451.074 216.159C449.455 216.159 448.869 217.148 448.568 217.688H448.426V216.273H446.767V228.273ZM448.432 220.636C448.432 218.812 449.227 217.602 450.71 217.602C452.25 217.602 453.023 218.903 453.023 220.636C453.023 222.386 452.227 223.722 450.71 223.722C449.25 223.722 448.432 222.472 448.432 220.636Z" fill="#E9D7FE"/>
<path d="M498.67 213.364H496.932V221.909H496.824L490.903 213.364H489.278V225H491.034V216.466H491.142L497.057 225H498.67V213.364ZM504.771 225.176C507.232 225.176 508.839 223.375 508.839 220.676C508.839 217.96 507.232 216.159 504.771 216.159C502.311 216.159 500.703 217.96 500.703 220.676C500.703 223.375 502.311 225.176 504.771 225.176ZM504.777 223.75C503.169 223.75 502.419 222.347 502.419 220.67C502.419 219 503.169 217.58 504.777 217.58C506.374 217.58 507.124 219 507.124 220.67C507.124 222.347 506.374 223.75 504.777 223.75ZM517.276 218.403C516.923 217.045 515.861 216.159 513.974 216.159C512.003 216.159 510.605 217.199 510.605 218.744C510.605 219.983 511.355 220.807 512.991 221.17L514.469 221.494C515.31 221.682 515.702 222.057 515.702 222.602C515.702 223.278 514.98 223.807 513.866 223.807C512.849 223.807 512.196 223.369 511.991 222.511L510.349 222.761C510.634 224.307 511.918 225.176 513.878 225.176C515.986 225.176 517.446 224.057 517.446 222.477C517.446 221.244 516.662 220.483 515.06 220.114L513.673 219.795C512.713 219.568 512.298 219.244 512.304 218.653C512.298 217.983 513.026 217.506 513.991 217.506C515.048 217.506 515.537 218.091 515.736 218.676L517.276 218.403ZM523.111 214.875H526.736V225H528.486V214.875H532.116V213.364H523.111V214.875ZM535.322 225.193C536.766 225.193 537.578 224.46 537.902 223.807H537.97V225H539.629V219.205C539.629 216.665 537.629 216.159 536.243 216.159C534.663 216.159 533.209 216.795 532.641 218.386L534.237 218.75C534.487 218.131 535.124 217.534 536.266 217.534C537.362 217.534 537.925 218.108 537.925 219.097V219.136C537.925 219.756 537.288 219.744 535.72 219.926C534.067 220.119 532.374 220.551 532.374 222.534C532.374 224.25 533.663 225.193 535.322 225.193ZM535.692 223.83C534.732 223.83 534.038 223.398 534.038 222.557C534.038 221.648 534.845 221.324 535.828 221.193C536.379 221.119 537.686 220.972 537.93 220.727V221.852C537.93 222.886 537.107 223.83 535.692 223.83ZM541.892 225H543.591V219.67C543.591 218.528 544.472 217.705 545.676 217.705C546.028 217.705 546.426 217.767 546.562 217.807V216.182C546.392 216.159 546.057 216.142 545.841 216.142C544.818 216.142 543.943 216.722 543.625 217.659H543.534V216.273H541.892V225ZM548.033 225H549.732V216.273H548.033V225ZM548.891 214.926C549.476 214.926 549.964 214.472 549.964 213.915C549.964 213.358 549.476 212.898 548.891 212.898C548.3 212.898 547.817 213.358 547.817 213.915C547.817 214.472 548.3 214.926 548.891 214.926ZM556.17 216.273H554.29V215.489C554.29 214.716 554.608 214.295 555.438 214.295C555.79 214.295 556.04 214.375 556.199 214.426L556.597 213.051C556.358 212.96 555.864 212.818 555.176 212.818C553.795 212.818 552.585 213.625 552.585 215.261V216.273H551.239V217.636H552.585V225H554.29V217.636H556.17V216.273ZM564.135 218.403C563.783 217.045 562.72 216.159 560.834 216.159C558.862 216.159 557.464 217.199 557.464 218.744C557.464 219.983 558.214 220.807 559.851 221.17L561.328 221.494C562.169 221.682 562.561 222.057 562.561 222.602C562.561 223.278 561.839 223.807 560.726 223.807C559.709 223.807 559.055 223.369 558.851 222.511L557.209 222.761C557.493 224.307 558.777 225.176 560.737 225.176C562.845 225.176 564.305 224.057 564.305 222.477C564.305 221.244 563.521 220.483 561.919 220.114L560.533 219.795C559.572 219.568 559.158 219.244 559.163 218.653C559.158 217.983 559.885 217.506 560.851 217.506C561.908 217.506 562.396 218.091 562.595 218.676L564.135 218.403Z" fill="#E9D7FE"/>
<path d="M119.318 313.182C122.642 313.182 125.33 310.494 125.318 307.182C125.307 303.869 122.642 301.182 119.318 301.182C116.017 301.182 113.33 303.869 113.318 307.182C113.307 310.494 116.017 313.182 119.318 313.182ZM119.318 311.864C116.733 311.864 114.625 309.756 114.636 307.188C114.648 304.602 116.744 302.5 119.318 302.5C121.903 302.5 123.989 304.591 124 307.188C124.011 309.767 121.915 311.864 119.318 311.864ZM116 307.182C116 309.045 117.511 310.557 119.375 310.557C120.989 310.557 122.227 309.42 122.443 307.909H121.068C120.909 308.688 120.25 309.239 119.375 309.239C118.239 309.239 117.318 308.318 117.318 307.182C117.318 306.045 118.239 305.125 119.375 305.125C120.25 305.125 121.028 305.676 121.182 306.455H122.557C122.341 304.943 120.989 303.807 119.375 303.807C117.511 303.807 116 305.318 116 307.182ZM132.345 313H139.686V311.75H134.277V311.659L136.891 308.864C138.891 306.722 139.482 305.722 139.482 304.432C139.482 302.636 138.027 301.205 135.982 301.205C133.942 301.205 132.391 302.591 132.391 304.636H133.732C133.732 303.312 134.589 302.432 135.936 302.432C137.197 302.432 138.163 303.205 138.163 304.432C138.163 305.506 137.533 306.301 136.186 307.773L132.345 311.977V313ZM145.828 313.159C148.396 313.159 149.874 310.983 149.874 307.182C149.874 303.409 148.374 301.205 145.828 301.205C143.283 301.205 141.783 303.409 141.783 307.182C141.783 310.983 143.26 313.159 145.828 313.159ZM145.828 311.909C144.135 311.909 143.146 310.21 143.146 307.182C143.146 304.159 144.146 302.432 145.828 302.432C147.51 302.432 148.51 304.159 148.51 307.182C148.51 310.21 147.521 311.909 145.828 311.909ZM152.033 313H159.374V311.75H153.964V311.659L156.578 308.864C158.578 306.722 159.169 305.722 159.169 304.432C159.169 302.636 157.714 301.205 155.669 301.205C153.629 301.205 152.078 302.591 152.078 304.636H153.419C153.419 303.312 154.277 302.432 155.624 302.432C156.885 302.432 157.851 303.205 157.851 304.432C157.851 305.506 157.22 306.301 155.874 307.773L152.033 311.977V313ZM165.811 301.364H164.402L161.493 303.295V304.727L164.334 302.841H164.402V313H165.811V301.364ZM175.976 313H177.43L179.999 303.727H180.089L182.658 313H184.112L187.294 301.364H185.862L183.43 310.841H183.317L180.839 301.364H179.249L176.771 310.841H176.658L174.226 301.364H172.794L175.976 313ZM191.714 313.182C193.487 313.182 194.783 312.295 195.192 310.977L193.896 310.614C193.555 311.523 192.766 311.977 191.714 311.977C190.141 311.977 189.055 310.96 188.993 309.091H195.328V308.523C195.328 305.273 193.396 304.159 191.578 304.159C189.214 304.159 187.646 306.023 187.646 308.705C187.646 311.386 189.192 313.182 191.714 313.182ZM188.993 307.932C189.084 306.574 190.044 305.364 191.578 305.364C193.033 305.364 193.964 306.455 193.964 307.932H188.993ZM201.027 313.182C202.8 313.182 204.095 312.295 204.504 310.977L203.209 310.614C202.868 311.523 202.078 311.977 201.027 311.977C199.453 311.977 198.368 310.96 198.305 309.091H204.641V308.523C204.641 305.273 202.709 304.159 200.891 304.159C198.527 304.159 196.959 306.023 196.959 308.705C196.959 311.386 198.504 313.182 201.027 313.182ZM198.305 307.932C198.396 306.574 199.357 305.364 200.891 305.364C202.345 305.364 203.277 306.455 203.277 307.932H198.305ZM206.43 313H213.271V311.75H208.294V311.659L213.112 305.341V304.273H206.589V305.523H211.385V305.614L206.43 311.977V313ZM218.746 313.182C220.518 313.182 221.814 312.295 222.223 310.977L220.928 310.614C220.587 311.523 219.797 311.977 218.746 311.977C217.172 311.977 216.087 310.96 216.024 309.091H222.359V308.523C222.359 305.273 220.428 304.159 218.609 304.159C216.246 304.159 214.678 306.023 214.678 308.705C214.678 311.386 216.223 313.182 218.746 313.182ZM216.024 307.932C216.115 306.574 217.075 305.364 218.609 305.364C220.064 305.364 220.996 306.455 220.996 307.932H216.024ZM228.058 313.182C229.831 313.182 231.126 312.295 231.536 310.977L230.24 310.614C229.899 311.523 229.109 311.977 228.058 311.977C226.484 311.977 225.399 310.96 225.337 309.091H231.672V308.523C231.672 305.273 229.74 304.159 227.922 304.159C225.558 304.159 223.99 306.023 223.99 308.705C223.99 311.386 225.536 313.182 228.058 313.182ZM225.337 307.932C225.428 306.574 226.388 305.364 227.922 305.364C229.376 305.364 230.308 306.455 230.308 307.932H225.337ZM234.689 313.091C235.251 313.091 235.712 312.631 235.712 312.068C235.712 311.506 235.251 311.045 234.689 311.045C234.126 311.045 233.666 311.506 233.666 312.068C233.666 312.631 234.126 313.091 234.689 313.091ZM243.277 313L244.447 309.705H249.152L250.322 313H251.8L247.527 301.364H246.072L241.8 313H243.277ZM244.891 308.455L246.754 303.205H246.845L248.709 308.455H244.891ZM254.771 301.364H253.43V313H254.771V301.364ZM258.568 301.364H257.227V313H258.568V301.364ZM265.524 313H266.865V307.477C266.865 306.295 267.797 305.432 269.07 305.432C269.428 305.432 269.797 305.5 269.888 305.523V304.159C269.734 304.148 269.382 304.136 269.183 304.136C268.138 304.136 267.229 304.727 266.911 305.591H266.82V304.273H265.524V313ZM271.477 313H272.818V304.273H271.477V313ZM272.159 302.818C272.682 302.818 273.114 302.409 273.114 301.909C273.114 301.409 272.682 301 272.159 301C271.636 301 271.205 301.409 271.205 301.909C271.205 302.409 271.636 302.818 272.159 302.818ZM278.797 316.455C280.888 316.455 282.57 315.5 282.57 313.25V304.273H281.274V305.659H281.138C280.842 305.205 280.297 304.159 278.592 304.159C276.388 304.159 274.865 305.909 274.865 308.591C274.865 311.318 276.456 312.864 278.57 312.864C280.274 312.864 280.82 311.864 281.115 311.386H281.229V313.159C281.229 314.614 280.206 315.273 278.797 315.273C277.212 315.273 276.655 314.438 276.297 313.955L275.229 314.705C275.774 315.619 276.848 316.455 278.797 316.455ZM278.751 311.659C277.07 311.659 276.206 310.386 276.206 308.568C276.206 306.795 277.047 305.364 278.751 305.364C280.388 305.364 281.251 306.682 281.251 308.568C281.251 310.5 280.365 311.659 278.751 311.659ZM286.365 307.75C286.365 306.227 287.337 305.364 288.661 305.364C289.922 305.364 290.683 306.159 290.683 307.545V313H292.024V307.455C292.024 305.21 290.831 304.159 289.047 304.159C287.672 304.159 286.888 304.733 286.479 305.636H286.365V301.364H285.024V313H286.365V307.75ZM298.273 304.273H296.409V302.182H295.068V304.273H293.75V305.409H295.068V310.864C295.068 312.386 296.295 313.114 297.432 313.114C297.932 313.114 298.25 313.023 298.432 312.955L298.159 311.75C298.045 311.773 297.864 311.818 297.568 311.818C296.977 311.818 296.409 311.636 296.409 310.5V305.409H298.273V304.273ZM306.315 306.227C305.895 304.989 304.952 304.159 303.224 304.159C301.384 304.159 300.02 305.205 300.02 306.682C300.02 307.886 300.736 308.693 302.338 309.068L303.793 309.409C304.673 309.614 305.088 310.034 305.088 310.636C305.088 311.386 304.293 312 303.043 312C301.946 312 301.259 311.528 301.02 310.591L299.747 310.909C300.06 312.392 301.281 313.182 303.065 313.182C305.094 313.182 306.474 312.074 306.474 310.568C306.474 309.352 305.713 308.585 304.156 308.205L302.861 307.886C301.827 307.631 301.361 307.284 301.361 306.614C301.361 305.864 302.156 305.318 303.224 305.318C304.395 305.318 304.878 305.966 305.111 306.568L306.315 306.227ZM312.993 313H314.334V307.477C314.334 306.295 315.266 305.432 316.538 305.432C316.896 305.432 317.266 305.5 317.357 305.523V304.159C317.203 304.148 316.851 304.136 316.652 304.136C315.607 304.136 314.697 304.727 314.379 305.591H314.288V304.273H312.993V313ZM322.339 313.182C324.112 313.182 325.408 312.295 325.817 310.977L324.521 310.614C324.18 311.523 323.391 311.977 322.339 311.977C320.766 311.977 319.68 310.96 319.618 309.091H325.953V308.523C325.953 305.273 324.021 304.159 322.203 304.159C319.839 304.159 318.271 306.023 318.271 308.705C318.271 311.386 319.817 313.182 322.339 313.182ZM319.618 307.932C319.709 306.574 320.669 305.364 322.203 305.364C323.658 305.364 324.589 306.455 324.589 307.932H319.618ZM334.175 306.227C333.754 304.989 332.811 304.159 331.084 304.159C329.243 304.159 327.879 305.205 327.879 306.682C327.879 307.886 328.595 308.693 330.197 309.068L331.652 309.409C332.533 309.614 332.947 310.034 332.947 310.636C332.947 311.386 332.152 312 330.902 312C329.805 312 329.118 311.528 328.879 310.591L327.607 310.909C327.919 312.392 329.141 313.182 330.925 313.182C332.953 313.182 334.334 312.074 334.334 310.568C334.334 309.352 333.572 308.585 332.016 308.205L330.72 307.886C329.686 307.631 329.22 307.284 329.22 306.614C329.22 305.864 330.016 305.318 331.084 305.318C332.254 305.318 332.737 305.966 332.97 306.568L334.175 306.227ZM340.011 313.182C341.784 313.182 343.08 312.295 343.489 310.977L342.193 310.614C341.852 311.523 341.062 311.977 340.011 311.977C338.438 311.977 337.352 310.96 337.29 309.091H343.625V308.523C343.625 305.273 341.693 304.159 339.875 304.159C337.511 304.159 335.943 306.023 335.943 308.705C335.943 311.386 337.489 313.182 340.011 313.182ZM337.29 307.932C337.381 306.574 338.341 305.364 339.875 305.364C341.33 305.364 342.261 306.455 342.261 307.932H337.29ZM345.665 313H347.006V307.477C347.006 306.295 347.938 305.432 349.21 305.432C349.568 305.432 349.938 305.5 350.028 305.523V304.159C349.875 304.148 349.523 304.136 349.324 304.136C348.278 304.136 347.369 304.727 347.051 305.591H346.96V304.273H345.665V313ZM359.02 304.273H357.565L355.156 311.227H355.065L352.656 304.273H351.202L354.429 313H355.793L359.02 304.273ZM364.136 313.182C365.909 313.182 367.205 312.295 367.614 310.977L366.318 310.614C365.977 311.523 365.188 311.977 364.136 311.977C362.562 311.977 361.477 310.96 361.415 309.091H367.75V308.523C367.75 305.273 365.818 304.159 364 304.159C361.636 304.159 360.068 306.023 360.068 308.705C360.068 311.386 361.614 313.182 364.136 313.182ZM361.415 307.932C361.506 306.574 362.466 305.364 364 305.364C365.455 305.364 366.386 306.455 366.386 307.932H361.415ZM373.085 313.182C374.767 313.182 375.335 312.136 375.631 311.659H375.79V313H377.085V301.364H375.744V305.659H375.631C375.335 305.205 374.812 304.159 373.108 304.159C370.903 304.159 369.381 305.909 369.381 308.659C369.381 311.432 370.903 313.182 373.085 313.182ZM373.267 311.977C371.585 311.977 370.722 310.5 370.722 308.636C370.722 306.795 371.562 305.364 373.267 305.364C374.903 305.364 375.767 306.682 375.767 308.636C375.767 310.614 374.881 311.977 373.267 311.977ZM380.705 313.091C381.267 313.091 381.727 312.631 381.727 312.068C381.727 311.506 381.267 311.045 380.705 311.045C380.142 311.045 379.682 311.506 379.682 312.068C379.682 312.631 380.142 313.091 380.705 313.091Z" fill="#D6BBFB"/>
<path d="M1167.55 316.75C1176.6 316.75 1181.56 309.247 1181.56 302.742C1181.56 302.531 1181.55 302.315 1181.54 302.104C1182.51 301.407 1183.34 300.544 1184 299.555C1183.1 299.955 1182.15 300.215 1181.17 300.329C1182.2 299.713 1182.97 298.745 1183.34 297.606C1182.37 298.179 1181.32 298.583 1180.21 298.801C1179.47 298.012 1178.49 297.489 1177.42 297.314C1176.35 297.139 1175.25 297.321 1174.3 297.832C1173.34 298.343 1172.58 299.155 1172.13 300.141C1171.69 301.128 1171.58 302.235 1171.82 303.29C1169.86 303.192 1167.95 302.684 1166.2 301.798C1164.45 300.912 1162.91 299.669 1161.67 298.15C1161.04 299.233 1160.85 300.516 1161.14 301.736C1161.42 302.957 1162.16 304.023 1163.2 304.72C1162.41 304.695 1161.65 304.485 1160.97 304.106V304.167C1160.96 305.304 1161.36 306.407 1162.08 307.287C1162.8 308.167 1163.8 308.771 1164.92 308.995C1164.19 309.193 1163.43 309.222 1162.69 309.079C1163.01 310.057 1163.62 310.913 1164.45 311.526C1165.27 312.14 1166.27 312.481 1167.29 312.501C1165.55 313.871 1163.39 314.614 1161.18 314.611C1160.78 314.61 1160.39 314.586 1160 314.538C1162.25 315.984 1164.87 316.751 1167.55 316.75Z" fill="white"/>
<g clip-path="url(#clip0_19_70742)">
<path d="M1230.22 295H1209.77C1208.79 295 1208 295.773 1208 296.73V317.266C1208 318.222 1208.79 319 1209.77 319H1230.22C1231.2 319 1232 318.222 1232 317.27V296.73C1232 295.773 1231.2 295 1230.22 295ZM1215.12 315.452H1211.56V303.995H1215.12V315.452ZM1213.34 302.434C1212.2 302.434 1211.27 301.511 1211.27 300.372C1211.27 299.233 1212.2 298.309 1213.34 298.309C1214.48 298.309 1215.4 299.233 1215.4 300.372C1215.4 301.506 1214.48 302.434 1213.34 302.434ZM1228.45 315.452H1224.89V309.883C1224.89 308.556 1224.87 306.845 1223.04 306.845C1221.19 306.845 1220.91 308.294 1220.91 309.789V315.452H1217.36V303.995H1220.77V305.561H1220.82C1221.29 304.661 1222.45 303.709 1224.18 303.709C1227.79 303.709 1228.45 306.081 1228.45 309.166V315.452Z" fill="white"/>
</g>
<g clip-path="url(#clip1_19_70742)">
<path d="M1280 307C1280 300.373 1274.63 295 1268 295C1261.37 295 1256 300.373 1256 307C1256 312.989 1260.39 317.954 1266.12 318.854V310.469H1263.08V307H1266.12V304.356C1266.12 301.349 1267.92 299.688 1270.66 299.688C1271.97 299.688 1273.34 299.922 1273.34 299.922V302.875H1271.83C1270.34 302.875 1269.88 303.8 1269.88 304.75V307H1273.2L1272.67 310.469H1269.88V318.854C1275.61 317.954 1280 312.989 1280 307Z" fill="white"/>
</g>
<path d="M1316 304C1315.2 304 1314.44 304.316 1313.88 304.879C1313.32 305.441 1313 306.204 1313 307C1313 307.796 1313.32 308.559 1313.88 309.121C1314.44 309.684 1315.2 310 1316 310C1316.8 310 1317.56 309.684 1318.12 309.121C1318.68 308.559 1319 307.796 1319 307C1319 306.204 1318.68 305.441 1318.12 304.879C1317.56 304.316 1316.8 304 1316 304ZM1316 302C1317.33 302 1318.6 302.527 1319.54 303.464C1320.47 304.402 1321 305.674 1321 307C1321 308.326 1320.47 309.598 1319.54 310.536C1318.6 311.473 1317.33 312 1316 312C1314.67 312 1313.4 311.473 1312.46 310.536C1311.53 309.598 1311 308.326 1311 307C1311 305.674 1311.53 304.402 1312.46 303.464C1313.4 302.527 1314.67 302 1316 302ZM1322.5 301.75C1322.5 302.082 1322.37 302.399 1322.13 302.634C1321.9 302.868 1321.58 303 1321.25 303C1320.92 303 1320.6 302.868 1320.37 302.634C1320.13 302.399 1320 302.082 1320 301.75C1320 301.418 1320.13 301.101 1320.37 300.866C1320.6 300.632 1320.92 300.5 1321.25 300.5C1321.58 300.5 1321.9 300.632 1322.13 300.866C1322.37 301.101 1322.5 301.418 1322.5 301.75ZM1316 299C1313.53 299 1313.12 299.007 1311.97 299.058C1311.19 299.095 1310.66 299.2 1310.17 299.39C1309.74 299.558 1309.43 299.759 1309.09 300.093C1308.78 300.395 1308.54 300.765 1308.39 301.173C1308.2 301.663 1308.09 302.188 1308.06 302.971C1308.01 304.075 1308 304.461 1308 307C1308 309.474 1308.01 309.878 1308.06 311.029C1308.1 311.812 1308.2 312.339 1308.39 312.826C1308.56 313.261 1308.76 313.574 1309.09 313.906C1309.43 314.242 1309.74 314.443 1310.17 314.609C1310.66 314.8 1311.19 314.906 1311.97 314.942C1313.08 314.994 1313.46 315 1316 315C1318.47 315 1318.88 314.993 1320.03 314.942C1320.81 314.905 1321.34 314.8 1321.83 314.611C1322.26 314.442 1322.57 314.241 1322.91 313.909C1323.24 313.572 1323.44 313.259 1323.61 312.829C1323.8 312.336 1323.91 311.809 1323.94 311.029C1323.99 309.925 1324 309.539 1324 307C1324 304.526 1323.99 304.122 1323.94 302.971C1323.9 302.189 1323.8 301.661 1323.61 301.173C1323.46 300.765 1323.22 300.396 1322.91 300.093C1322.6 299.78 1322.24 299.539 1321.83 299.389C1321.34 299.199 1320.81 299.094 1320.03 299.058C1318.92 299.006 1318.54 299 1316 299ZM1316 297C1318.72 297 1319.06 297.01 1320.12 297.06C1321.19 297.11 1321.91 297.277 1322.55 297.525C1323.21 297.779 1323.77 298.123 1324.32 298.678C1324.83 299.178 1325.22 299.783 1325.48 300.45C1325.72 301.087 1325.89 301.813 1325.94 302.878C1325.99 303.944 1326 304.283 1326 307C1326 309.717 1325.99 310.056 1325.94 311.122C1325.89 312.187 1325.72 312.912 1325.48 313.55C1325.22 314.218 1324.83 314.823 1324.32 315.322C1323.82 315.83 1323.22 316.224 1322.55 316.475C1321.91 316.722 1321.19 316.89 1320.12 316.94C1319.06 316.987 1318.72 317 1316 317C1313.28 317 1312.94 316.99 1311.88 316.94C1310.81 316.89 1310.09 316.722 1309.45 316.475C1308.78 316.224 1308.18 315.831 1307.68 315.322C1307.17 314.822 1306.78 314.217 1306.53 313.55C1306.28 312.913 1306.11 312.187 1306.06 311.122C1306.01 310.056 1306 309.717 1306 307C1306 304.283 1306.01 303.944 1306.06 302.878C1306.11 301.812 1306.28 301.088 1306.53 300.45C1306.78 299.782 1307.17 299.177 1307.68 298.678C1308.18 298.169 1308.78 297.776 1309.45 297.525C1310.09 297.277 1310.81 297.11 1311.88 297.06C1312.94 297.013 1313.28 297 1316 297Z" fill="white"/>
<defs>
<clipPath id="clip0_19_70742">
<rect width="24" height="24" fill="white" transform="translate(1208 295)"/>
</clipPath>
<clipPath id="clip1_19_70742">
<rect width="24" height="24" fill="white" transform="translate(1256 295)"/>
</clipPath>
</defs>
</svg>

