<svg width="56" height="56" viewBox="0 0 56 56" fill="none" xmlns="http://www.w3.org/2000/svg">
<rect x="4" y="4" width="48" height="48" rx="24" fill="#F4EBFF"/>
<path d="M37.21 31.89C36.5739 33.3945 35.5788 34.7202 34.3119 35.7513C33.045 36.7824 31.5448 37.4874 29.9425 37.8048C28.3401 38.1221 26.6845 38.0421 25.1202 37.5718C23.5559 37.1014 22.1307 36.2551 20.9691 35.1067C19.8075 33.9582 18.9449 32.5428 18.4567 30.9839C17.9685 29.4251 17.8696 27.7705 18.1686 26.1646C18.4677 24.5588 19.1555 23.0506 20.1721 21.772C21.1886 20.4934 22.5029 19.4833 24 18.83M38 28C38 26.6868 37.7414 25.3864 37.2388 24.1732C36.7363 22.9599 35.9997 21.8575 35.0711 20.9289C34.1425 20.0003 33.0401 19.2638 31.8269 18.7612C30.6136 18.2587 29.3133 18 28 18V28H38Z" stroke="#7F56D9" stroke-width="2" stroke-linecap="round" stroke-linejoin="round"/>
<rect x="4" y="4" width="48" height="48" rx="24" stroke="#F9F5FF" stroke-width="8"/>
</svg>
