<svg width="184" height="56" viewBox="0 0 184 56" fill="none" xmlns="http://www.w3.org/2000/svg">
<path d="M3.03535 33.713C7.42809 42.0657 13.4531 49.2146 20.9413 54.9657C21.0783 55.1218 21.2489 55.2544 21.4413 55.3498C21.632 55.4453 21.8396 55.4923 22.048 55.4979C22.0744 55.4979 22.1013 55.5 22.127 55.5C22.3615 55.5 22.5992 55.4453 22.8185 55.3411C22.9935 55.2584 23.1464 55.1401 23.2734 54.9971C40.0277 42.1662 43.2949 28.7175 43.4158 28.192C43.91 26.3088 44.1614 24.4211 44.1614 22.5812C44.1619 10.406 34.2552 0.5 22.0804 0.5C9.90474 0.5 0 10.405 0 22.5812C0 24.385 0.239771 26.2298 0.712629 28.0701C0.724742 28.195 0.751685 28.3197 0.794501 28.4404C0.934437 28.8266 2.17632 32.2615 3.03535 33.713ZM21.9444 19.1539C18.8964 19.1539 16.1574 20.8485 14.796 23.5783C14.4276 24.3181 13.5264 24.6174 12.7874 24.249C12.0481 23.881 11.7473 22.9808 12.1168 22.241C13.9884 18.4901 17.7533 16.1594 21.9442 16.1594C26.1889 16.1594 30.0948 18.6445 31.8953 22.4914C32.2473 23.24 31.9217 24.1324 31.1729 24.4819C30.9684 24.5784 30.7518 24.6233 30.5394 24.6233C29.977 24.6233 29.4381 24.305 29.1835 23.7611C27.8744 20.9611 25.032 19.1539 21.9444 19.1539ZM26.4786 27.9882C26.4786 30.4972 24.4464 32.5307 21.9367 32.5307C19.4281 32.5307 17.3953 30.4972 17.3953 27.9882C17.3953 25.4802 19.4281 23.4468 21.9367 23.4468C24.4462 23.4468 26.4786 25.4802 26.4786 27.9882ZM21.9177 11.5307C16.9698 11.5307 12.522 14.2824 10.3101 18.7123C9.94067 19.4532 9.04153 19.7525 8.30154 19.383C7.56217 19.0141 7.26162 18.1148 7.63089 17.375C10.353 11.9231 15.8267 8.53649 21.9165 8.53649C28.0868 8.53649 33.7638 12.1489 36.3789 17.7407C36.73 18.4893 36.4052 19.3811 35.6567 19.7307C35.452 19.8276 35.2356 19.8725 35.0232 19.8725C34.4597 19.8725 33.9217 19.5542 33.6663 19.0104C31.5434 14.4664 26.931 11.5307 21.9177 11.5307Z" fill="#53389E"/>
<path d="M64.6416 40H69.4371L73.8575 24.7841H74.0393L78.4712 40H83.2666L89.9257 16.7273H84.5507L80.6984 32.9318H80.4939L76.2552 16.7273H71.653L67.403 32.8977H67.2098L63.3575 16.7273H57.9825L64.6416 40ZM98.5479 40.3409C102.866 40.3409 105.775 38.2386 106.457 35L101.98 34.7045C101.491 36.0341 100.241 36.7273 98.6274 36.7273C96.207 36.7273 94.6729 35.125 94.6729 32.5227V32.5114H106.559V31.1818C106.559 25.25 102.968 22.3182 98.3547 22.3182C93.2183 22.3182 89.8888 25.9659 89.8888 31.3523C89.8888 36.8864 93.1729 40.3409 98.5479 40.3409ZM94.6729 29.5114C94.7751 27.5227 96.2865 25.9318 98.4342 25.9318C100.536 25.9318 101.991 27.4318 102.002 29.5114H94.6729ZM117.673 40.3409C121.991 40.3409 124.9 38.2386 125.582 35L121.105 34.7045C120.616 36.0341 119.366 36.7273 117.752 36.7273C115.332 36.7273 113.798 35.125 113.798 32.5227V32.5114H125.684V31.1818C125.684 25.25 122.093 22.3182 117.48 22.3182C112.343 22.3182 109.014 25.9659 109.014 31.3523C109.014 36.8864 112.298 40.3409 117.673 40.3409ZM113.798 29.5114C113.9 27.5227 115.411 25.9318 117.559 25.9318C119.661 25.9318 121.116 27.4318 121.127 29.5114H113.798ZM128.752 40H143.423V36.1364H135.105V36.0114L143.127 25.6932V22.5455H129.048V26.4091H137.298V26.5341L128.752 37.1136V40ZM154.579 40.3409C158.897 40.3409 161.806 38.2386 162.488 35L158.011 34.7045C157.522 36.0341 156.272 36.7273 154.659 36.7273C152.238 36.7273 150.704 35.125 150.704 32.5227V32.5114H162.59V31.1818C162.59 25.25 159 22.3182 154.386 22.3182C149.25 22.3182 145.92 25.9659 145.92 31.3523C145.92 36.8864 149.204 40.3409 154.579 40.3409ZM150.704 29.5114C150.806 27.5227 152.318 25.9318 154.465 25.9318C156.568 25.9318 158.022 27.4318 158.034 29.5114H150.704ZM173.704 40.3409C178.022 40.3409 180.931 38.2386 181.613 35L177.136 34.7045C176.647 36.0341 175.397 36.7273 173.784 36.7273C171.363 36.7273 169.829 35.125 169.829 32.5227V32.5114H181.715V31.1818C181.715 25.25 178.125 22.3182 173.511 22.3182C168.375 22.3182 165.045 25.9659 165.045 31.3523C165.045 36.8864 168.329 40.3409 173.704 40.3409ZM169.829 29.5114C169.931 27.5227 171.443 25.9318 173.59 25.9318C175.693 25.9318 177.147 27.4318 177.159 29.5114H169.829Z" fill="#53389E"/>
</svg>
